<mxfile host="65bd71144e">
    <diagram id="2AjmQ4g3Ko494eU14FOw" name="Page-1">
        <mxGraphModel dx="613" dy="147" grid="1" gridSize="10" guides="1" tooltips="1" connect="1" arrows="1" fold="1" page="1" pageScale="1" pageWidth="850" pageHeight="1100" math="0" shadow="0">
            <root>
                <mxCell id="0"/>
                <mxCell id="1" parent="0"/>
                <mxCell id="7" value="UserProfile" style="whiteSpace=wrap;html=1;aspect=fixed;" parent="1" vertex="1">
                    <mxGeometry x="30" y="170" width="270" height="270" as="geometry"/>
                </mxCell>
                <mxCell id="8" value="UserTimes" style="whiteSpace=wrap;html=1;aspect=fixed;" parent="1" vertex="1">
                    <mxGeometry x="30" y="460" width="270" height="270" as="geometry"/>
                </mxCell>
                <mxCell id="9" value="UserLeaderboard" style="whiteSpace=wrap;html=1;aspect=fixed;" parent="1" vertex="1">
                    <mxGeometry x="330" y="170" width="500" height="500" as="geometry"/>
                </mxCell>
                <mxCell id="11" value="see all tracks" style="rounded=0;whiteSpace=wrap;html=1;" parent="1" vertex="1">
                    <mxGeometry x="150" y="90" width="120" height="60" as="geometry"/>
                </mxCell>
                <mxCell id="14" value="see all drivers" style="rounded=0;whiteSpace=wrap;html=1;" parent="1" vertex="1">
                    <mxGeometry x="600" y="90" width="120" height="60" as="geometry"/>
                </mxCell>
                <mxCell id="15" value="UserContainer&lt;br&gt;&quot;Time trial app name&quot;" style="rounded=0;whiteSpace=wrap;html=1;" parent="1" vertex="1">
                    <mxGeometry x="20" y="10" width="810" height="60" as="geometry"/>
                </mxCell>
                <mxCell id="16" value="recent times" style="rounded=1;whiteSpace=wrap;html=1;" parent="1" vertex="1">
                    <mxGeometry x="387.5" y="205" width="132.5" height="45" as="geometry"/>
                </mxCell>
                <mxCell id="19" value="" style="shape=link;html=1;" parent="1" edge="1">
                    <mxGeometry width="100" relative="1" as="geometry">
                        <mxPoint y="760" as="sourcePoint"/>
                        <mxPoint x="840" y="760" as="targetPoint"/>
                    </mxGeometry>
                </mxCell>
                <mxCell id="20" value="DriverContainer&lt;br&gt;&quot;Driver Page&quot;" style="rounded=0;whiteSpace=wrap;html=1;" parent="1" vertex="1">
                    <mxGeometry y="780" width="840" height="60" as="geometry"/>
                </mxCell>
                <mxCell id="21" value="DriverDetails" style="whiteSpace=wrap;html=1;aspect=fixed;" parent="1" vertex="1">
                    <mxGeometry x="300" y="850" width="230" height="230" as="geometry"/>
                </mxCell>
                <mxCell id="24" value="&lt;span&gt;driver&lt;/span&gt;" style="whiteSpace=wrap;html=1;aspect=fixed;" parent="1" vertex="1">
                    <mxGeometry x="680" y="1250" width="80" height="80" as="geometry"/>
                </mxCell>
                <mxCell id="25" value="&lt;span&gt;driver&lt;/span&gt;" style="whiteSpace=wrap;html=1;aspect=fixed;" parent="1" vertex="1">
                    <mxGeometry x="560" y="1250" width="80" height="80" as="geometry"/>
                </mxCell>
                <mxCell id="26" value="&lt;span&gt;driver&lt;/span&gt;" style="whiteSpace=wrap;html=1;aspect=fixed;" parent="1" vertex="1">
                    <mxGeometry x="440" y="1250" width="80" height="80" as="geometry"/>
                </mxCell>
                <mxCell id="27" value="&lt;span&gt;driver&lt;/span&gt;" style="whiteSpace=wrap;html=1;aspect=fixed;" parent="1" vertex="1">
                    <mxGeometry x="300" y="1250" width="80" height="80" as="geometry"/>
                </mxCell>
                <mxCell id="28" value="&lt;span&gt;driver&lt;/span&gt;" style="whiteSpace=wrap;html=1;aspect=fixed;" parent="1" vertex="1">
                    <mxGeometry x="160" y="1250" width="80" height="80" as="geometry"/>
                </mxCell>
                <mxCell id="29" value="&lt;span&gt;driver&lt;/span&gt;" style="whiteSpace=wrap;html=1;aspect=fixed;" parent="1" vertex="1">
                    <mxGeometry x="20" y="1250" width="80" height="80" as="geometry"/>
                </mxCell>
                <mxCell id="30" value="&lt;span&gt;driver&lt;/span&gt;" style="whiteSpace=wrap;html=1;aspect=fixed;" parent="1" vertex="1">
                    <mxGeometry x="670" y="1120" width="80" height="80" as="geometry"/>
                </mxCell>
                <mxCell id="31" value="&lt;span&gt;driver&lt;/span&gt;" style="whiteSpace=wrap;html=1;aspect=fixed;" parent="1" vertex="1">
                    <mxGeometry x="560" y="1120" width="80" height="80" as="geometry"/>
                </mxCell>
                <mxCell id="32" value="&lt;span&gt;driver&lt;/span&gt;" style="whiteSpace=wrap;html=1;aspect=fixed;" parent="1" vertex="1">
                    <mxGeometry x="430" y="1120" width="80" height="80" as="geometry"/>
                </mxCell>
                <mxCell id="33" value="&lt;span&gt;driver&lt;/span&gt;" style="whiteSpace=wrap;html=1;aspect=fixed;" parent="1" vertex="1">
                    <mxGeometry x="300" y="1120" width="80" height="80" as="geometry"/>
                </mxCell>
                <mxCell id="34" value="driver" style="whiteSpace=wrap;html=1;aspect=fixed;" parent="1" vertex="1">
                    <mxGeometry x="160" y="1120" width="80" height="80" as="geometry"/>
                </mxCell>
                <mxCell id="35" value="driver" style="whiteSpace=wrap;html=1;aspect=fixed;" parent="1" vertex="1">
                    <mxGeometry x="20" y="1120" width="80" height="80" as="geometry"/>
                </mxCell>
                <mxCell id="37" style="edgeStyle=none;html=1;entryX=0;entryY=0.5;entryDx=0;entryDy=0;" parent="1" source="36" target="21" edge="1">
                    <mxGeometry relative="1" as="geometry"/>
                </mxCell>
                <mxCell id="36" value="Hidden with boolean until selected&amp;nbsp;" style="text;html=1;align=center;verticalAlign=middle;resizable=0;points=[];autosize=1;strokeColor=none;fillColor=none;" parent="1" vertex="1">
                    <mxGeometry x="50" y="955" width="200" height="20" as="geometry"/>
                </mxCell>
                <mxCell id="38" value="" style="shape=link;html=1;" parent="1" edge="1">
                    <mxGeometry width="100" relative="1" as="geometry">
                        <mxPoint x="10" y="1350" as="sourcePoint"/>
                        <mxPoint x="840" y="1350" as="targetPoint"/>
                        <Array as="points">
                            <mxPoint x="420" y="1350"/>
                        </Array>
                    </mxGeometry>
                </mxCell>
                <mxCell id="39" value="TracksContainer&lt;br&gt;&quot;Track Page&quot;" style="rounded=0;whiteSpace=wrap;html=1;" parent="1" vertex="1">
                    <mxGeometry y="1370" width="840" height="60" as="geometry"/>
                </mxCell>
                <mxCell id="40" value="TrackDetails" style="whiteSpace=wrap;html=1;aspect=fixed;" parent="1" vertex="1">
                    <mxGeometry x="300" y="1440" width="230" height="230" as="geometry"/>
                </mxCell>
                <mxCell id="41" value="&lt;span&gt;track&lt;/span&gt;" style="whiteSpace=wrap;html=1;aspect=fixed;" parent="1" vertex="1">
                    <mxGeometry x="680" y="1840" width="80" height="80" as="geometry"/>
                </mxCell>
                <mxCell id="42" value="&lt;span&gt;track&lt;/span&gt;" style="whiteSpace=wrap;html=1;aspect=fixed;" parent="1" vertex="1">
                    <mxGeometry x="560" y="1840" width="80" height="80" as="geometry"/>
                </mxCell>
                <mxCell id="43" value="&lt;span&gt;track&lt;/span&gt;" style="whiteSpace=wrap;html=1;aspect=fixed;" parent="1" vertex="1">
                    <mxGeometry x="440" y="1840" width="80" height="80" as="geometry"/>
                </mxCell>
                <mxCell id="44" value="&lt;span&gt;track&lt;/span&gt;" style="whiteSpace=wrap;html=1;aspect=fixed;" parent="1" vertex="1">
                    <mxGeometry x="300" y="1840" width="80" height="80" as="geometry"/>
                </mxCell>
                <mxCell id="45" value="&lt;span&gt;track&lt;/span&gt;" style="whiteSpace=wrap;html=1;aspect=fixed;" parent="1" vertex="1">
                    <mxGeometry x="160" y="1840" width="80" height="80" as="geometry"/>
                </mxCell>
                <mxCell id="46" value="&lt;span&gt;track&lt;/span&gt;" style="whiteSpace=wrap;html=1;aspect=fixed;" parent="1" vertex="1">
                    <mxGeometry x="20" y="1840" width="80" height="80" as="geometry"/>
                </mxCell>
                <mxCell id="47" value="&lt;span&gt;track&lt;/span&gt;" style="whiteSpace=wrap;html=1;aspect=fixed;" parent="1" vertex="1">
                    <mxGeometry x="670" y="1710" width="80" height="80" as="geometry"/>
                </mxCell>
                <mxCell id="48" value="&lt;span&gt;track&lt;/span&gt;" style="whiteSpace=wrap;html=1;aspect=fixed;" parent="1" vertex="1">
                    <mxGeometry x="560" y="1710" width="80" height="80" as="geometry"/>
                </mxCell>
                <mxCell id="49" value="&lt;span&gt;track&lt;/span&gt;" style="whiteSpace=wrap;html=1;aspect=fixed;" parent="1" vertex="1">
                    <mxGeometry x="430" y="1710" width="80" height="80" as="geometry"/>
                </mxCell>
                <mxCell id="50" value="&lt;span&gt;track&lt;/span&gt;" style="whiteSpace=wrap;html=1;aspect=fixed;" parent="1" vertex="1">
                    <mxGeometry x="300" y="1710" width="80" height="80" as="geometry"/>
                </mxCell>
                <mxCell id="51" value="track" style="whiteSpace=wrap;html=1;aspect=fixed;" parent="1" vertex="1">
                    <mxGeometry x="160" y="1710" width="80" height="80" as="geometry"/>
                </mxCell>
                <mxCell id="52" value="&lt;span&gt;track&lt;/span&gt;" style="whiteSpace=wrap;html=1;aspect=fixed;" parent="1" vertex="1">
                    <mxGeometry x="20" y="1710" width="80" height="80" as="geometry"/>
                </mxCell>
                <mxCell id="53" style="edgeStyle=none;html=1;entryX=0;entryY=0.5;entryDx=0;entryDy=0;" parent="1" source="54" target="40" edge="1">
                    <mxGeometry relative="1" as="geometry"/>
                </mxCell>
                <mxCell id="54" value="Hidden with boolean until selected&amp;nbsp;" style="text;html=1;align=center;verticalAlign=middle;resizable=0;points=[];autosize=1;strokeColor=none;fillColor=none;" parent="1" vertex="1">
                    <mxGeometry x="50" y="1545" width="200" height="20" as="geometry"/>
                </mxCell>
                <mxCell id="56" value="DriversCollection" style="text;html=1;align=center;verticalAlign=middle;resizable=0;points=[];autosize=1;strokeColor=none;fillColor=none;" parent="1" vertex="1">
                    <mxGeometry x="365" y="1090" width="110" height="20" as="geometry"/>
                </mxCell>
                <mxCell id="57" value="TrackForm&lt;br&gt;//Visual to Admin only&lt;br&gt;//can make ternary so hides when not admin&lt;br&gt;//where to put visually not decided" style="whiteSpace=wrap;html=1;aspect=fixed;" parent="1" vertex="1">
                    <mxGeometry x="600" y="1465" width="175" height="175" as="geometry"/>
                </mxCell>
                <mxCell id="60" value="back home button" style="rounded=0;whiteSpace=wrap;html=1;" parent="1" vertex="1">
                    <mxGeometry x="60" y="790" width="90" height="40" as="geometry"/>
                </mxCell>
                <mxCell id="62" value="back home button" style="rounded=0;whiteSpace=wrap;html=1;" parent="1" vertex="1">
                    <mxGeometry x="90" y="1382.5" width="90" height="35" as="geometry"/>
                </mxCell>
                <mxCell id="63" value="Form" style="rounded=0;whiteSpace=wrap;html=1;" parent="1" vertex="1">
                    <mxGeometry x="50" y="480" width="220" height="220" as="geometry"/>
                </mxCell>
                <mxCell id="64" value="my times" style="rounded=0;whiteSpace=wrap;html=1;" parent="1" vertex="1">
                    <mxGeometry x="600" y="205" width="160" height="45" as="geometry"/>
                </mxCell>
            </root>
        </mxGraphModel>
    </diagram>
</mxfile>